<?xml version="1.0" encoding="utf-8"?>
<!-- Generator: Adobe Illustrator 16.0.0, SVG Export Plug-In . SVG Version: 6.00 Build 0)  -->
<!DOCTYPE svg PUBLIC "-//W3C//DTD SVG 1.1//EN" "http://www.w3.org/Graphics/SVG/1.1/DTD/svg11.dtd">
<svg version="1.1" id="Layer_1" xmlns="http://www.w3.org/2000/svg" xmlns:xlink="http://www.w3.org/1999/xlink" x="0px" y="0px"
	 width="500px" height="100px" viewBox="0 0 500 100" enable-background="new 0 0 500 100" xml:space="preserve">
<g>
	<path d="M35.564,63.746l4.891-32.412h9.978v45.651h-6.782V44.247l-4.957,32.738h-6.782l-5.349-32.282v32.282h-6.26V31.334h9.978
		L35.564,63.746z"/>
	<path d="M65.752,31.334h7.173v45.651h-7.173V31.334z"/>
	<path d="M88.248,31.334h7.173v39.128h11.805v6.523H88.248V31.334z"/>
	<path d="M143.678,76.985h-7.238l-1.239-8.284h-8.805l-1.238,8.284h-6.587l7.304-45.651h10.5L143.678,76.985z M127.309,62.506h6.913
		l-3.456-23.085L127.309,62.506z"/>
	<path d="M163.501,43.92v33.065h-6.458V31.334h9l7.368,27.325V31.334h6.392v45.651h-7.37L163.501,43.92z"/>
	<path d="M246.642,42.616v5.935c0,7.304-3.521,11.282-10.695,11.282h-3.392v17.153h-7.174V31.334h10.565
		C243.121,31.334,246.642,35.312,246.642,42.616z M232.555,37.855v15.456h3.392c2.282,0,3.522-1.043,3.522-4.304V42.16
		c0-3.261-1.24-4.305-3.522-4.305H232.555z"/>
	<path d="M267.571,50.572h9.848v6.521h-9.848v13.368h12.393v6.523h-19.565V31.334h19.565v6.521h-12.393V50.572z"/>
	<path d="M292.415,31.334h22.174v6.521h-7.5v39.13h-7.173v-39.13h-7.501V31.334z"/>
	<path d="M342.823,76.985c-0.391-1.176-0.65-1.894-0.65-5.608v-7.175c0-4.239-1.437-5.805-4.696-5.805h-2.48v18.588h-7.173V31.334
		h10.827c7.434,0,10.63,3.456,10.63,10.5v3.586c0,4.696-1.5,7.762-4.696,9.261c3.587,1.499,4.762,4.955,4.762,9.718v7.043
		c0,2.217,0.064,3.847,0.782,5.544H342.823z M334.996,37.855v14.021h2.806c2.674,0,4.303-1.174,4.303-4.826v-4.499
		c0-3.261-1.107-4.696-3.649-4.696H334.996z"/>
	<path d="M363.56,42.29c0-7.305,3.847-11.479,10.891-11.479s10.89,4.174,10.89,11.479v23.739c0,7.304-3.846,11.478-10.89,11.478
		s-10.891-4.174-10.891-11.478V42.29z M370.733,66.485c0,3.26,1.435,4.5,3.717,4.5s3.717-1.24,3.717-4.5V41.833
		c0-3.261-1.435-4.5-3.717-4.5s-3.717,1.239-3.717,4.5V66.485z"/>
	<path d="M410.902,68.571l5.479-37.237h6.586l-7.042,45.651h-10.696l-7.044-45.651h7.239L410.902,68.571z"/>
	<path d="M436.398,31.334h7.175v45.651h-7.175V31.334z"/>
	<path d="M479.696,59.963v6.065c0,7.304-3.651,11.478-10.693,11.478s-10.696-4.174-10.696-11.478V42.29
		c0-7.305,3.654-11.479,10.696-11.479s10.693,4.174,10.693,11.479v4.436h-6.781v-4.892c0-3.261-1.434-4.5-3.716-4.5
		c-2.284,0-3.721,1.239-3.721,4.5v24.652c0,3.26,1.437,4.434,3.721,4.434c2.282,0,3.716-1.174,3.716-4.434v-6.522H479.696z
		 M476.699,21.682l-6.653,7.239h-4.827l4.437-7.239H476.699z"/>
</g>
</svg>
